# xmcd CD database file
# Generated: Mon Jul 24 14:09:50 2000 by KSCD
# 
# Track frame offsets:
#       150
#       16407
#       32027
#       47290
#       74962
#       89822
#       111652
#       136015
#       151675
#       180515
#       192450
#
# Disc length: 3103 seconds
#
# Revision: 2
# Processed by: cddbd v1.4b41PL1 Copyright (c) Steve Scherf et al.
# Submitted via: Kscd 1.2.7
#
DISCID=970c1d0b
DTITLE=The Manfreds - Live CD 1
DYEAR=1900
DGENRE=
TTITLE0=The One In The Middle
TTITLE1=Just Like A Woman
TTITLE2=My Name Is Jack
TTITLE3=Sha-La-La
TTITLE4=Malt and Barley Blues
TTITLE5=Heart On My Sleeve
TTITLE6=My Little Red Book
TTITLE7=Fox On The Run
TTITLE8=Driva Man
TTITLE9=Semi-Detached Sunurban Mr. James
TTITLE10=Pretty Flamingo
EXTD=
EXTT0=
EXTT1=
EXTT2=
EXTT3=
EXTT4=
EXTT5=
EXTT6=
EXTT7=
EXTT8=
EXTT9=
EXTT10=
PLAYORDER=
